<svg xmlns:dc="http://purl.org/dc/elements/1.1/" xmlns:cc="http://creativecommons.org/ns#" xmlns:rdf="http://www.w3.org/1999/02/22-rdf-syntax-ns#" xmlns:svg="http://www.w3.org/2000/svg" xmlns="http://www.w3.org/2000/svg" xmlns:xlink="http://www.w3.org/1999/xlink" id="svg185989" viewBox="0 0 1024 768" height="768px" width="1024px" version="1.1">
  <metadata id="metadata185995">
    <rdf:rdf>
      <cc:work rdf:about="">
        <dc:format>image/svg+xml</dc:format>
        <dc:type rdf:resource="http://purl.org/dc/dcmitype/StillImage"></dc:type>
      </cc:work>
    </rdf:rdf>
  </metadata>
  <defs id="defs185993"></defs>
  <linearGradient spreadMethod="pad" y2="30%" x2="-10%" y1="120%" x1="30%" id="3d_gradient2-logo-15c44ee7-7d28-4c4f-90ca-a60c7f424da3">
    <stop id="stop185970" stop-opacity="1" stop-color="#ffffff" offset="0%"></stop>
    <stop id="stop185972" stop-opacity="1" stop-color="#000000" offset="100%"></stop>
  </linearGradient>
  <linearGradient gradientTransform="rotate(-30)" spreadMethod="pad" y2="30%" x2="-10%" y1="120%" x1="30%" id="3d_gradient3-logo-15c44ee7-7d28-4c4f-90ca-a60c7f424da3">
    <stop id="stop185975" stop-opacity="1" stop-color="#ffffff" offset="0%"></stop>
    <stop id="stop185977" stop-opacity="1" stop-color="#cccccc" offset="50%"></stop>
    <stop id="stop185979" stop-opacity="1" stop-color="#000000" offset="100%"></stop>
  </linearGradient>
  <g id="logo-group">
    <image xlink:href="" id="container" style="display: none;" x="272" y="144" width="480" height="480" transform="translate(0 0)"></image>
    <g id="logo-center" transform="translate(57.34768200000008 0)">
      <image xlink:href="" id="icon_container" style="display: none;" x="0" y="0"></image>
      <g id="slogan" style="font-style:normal;font-weight:800;font-size:32px;line-height:1;font-family:'Montserrat ExtraBold Alt1';font-variant-ligatures:none;text-align:center;text-anchor:middle" transform="translate(0 0)">
        <path id="path185997" style="font-style:normal;font-weight:800;font-size:32px;line-height:1;font-family:'Montserrat ExtraBold Alt1';font-variant-ligatures:none;text-align:center;text-anchor:middle" d="m 406.83375,0 h 6.336 v -7.68 h 10.592 v -4.896 h -16.928 z m 0,-22.4 v 4.896 h 16.928 V -22.4 Z" stroke-width="0" stroke-linejoin="miter" stroke-miterlimit="2" fill="#fc2d49" stroke="#fc2d49" transform="translate(0 417.89864) translate(50 36.400000000000006) scale(1.68) translate(-406.83375 22.4)"></path>
        <path id="path185999" style="font-style:normal;font-weight:800;font-size:32px;line-height:1;font-family:'Montserrat ExtraBold Alt1';font-variant-ligatures:none;text-align:center;text-anchor:middle" d="m 430.41325,-0.864 c 1.472,0.768 3.168,1.152 5.024,1.152 1.856,0 3.552,-0.384 5.056,-1.152 1.472,-0.768 2.656,-1.824 3.488,-3.2 0.832,-1.344 1.248,-2.912 1.248,-4.64 0,-1.728 -0.416,-3.264 -1.248,-4.608 -0.832,-1.344 -2.016,-2.4 -3.488,-3.168 -1.504,-0.768 -3.2,-1.152 -5.056,-1.152 -1.888,0 -3.584,0.384 -5.056,1.152 -1.472,0.768 -2.656,1.824 -3.488,3.168 -0.832,1.376 -1.248,2.912 -1.248,4.608 0,1.728 0.416,3.296 1.248,4.64 0.832,1.376 2.016,2.432 3.52,3.2 z m 7.648,-4.768 c -0.704,0.736 -1.568,1.088 -2.624,1.088 -1.088,0 -1.952,-0.352 -2.624,-1.088 -0.704,-0.736 -1.024,-1.76 -1.024,-3.072 0,-1.28 0.32,-2.272 1.024,-3.008 0.672,-0.704 1.536,-1.088 2.624,-1.088 1.056,0 1.92,0.384 2.624,1.088 0.672,0.736 1.024,1.728 1.024,3.008 0,1.312 -0.352,2.336 -1.024,3.072 z" stroke-width="0" stroke-linejoin="miter" stroke-miterlimit="2" fill="#fc2d49" stroke="#fc2d49" transform="translate(0 417.89864) translate(91.68331999999995 44.41024) scale(1.68) translate(-425.64525 17.632)"></path>
        <path id="path186001" style="font-style:normal;font-weight:800;font-size:32px;line-height:1;font-family:'Montserrat ExtraBold Alt1';font-variant-ligatures:none;text-align:center;text-anchor:middle" d="m 451.72575,-0.864 c 1.472,0.768 3.168,1.152 5.024,1.152 1.856,0 3.552,-0.384 5.056,-1.152 1.472,-0.768 2.656,-1.824 3.488,-3.2 0.832,-1.344 1.248,-2.912 1.248,-4.64 0,-1.728 -0.416,-3.264 -1.248,-4.608 -0.832,-1.344 -2.016,-2.4 -3.488,-3.168 -1.504,-0.768 -3.2,-1.152 -5.056,-1.152 -1.888,0 -3.584,0.384 -5.056,1.152 -1.472,0.768 -2.656,1.824 -3.488,3.168 -0.832,1.376 -1.248,2.912 -1.248,4.608 0,1.728 0.416,3.296 1.248,4.64 0.832,1.376 2.016,2.432 3.52,3.2 z m 7.648,-4.768 c -0.704,0.736 -1.568,1.088 -2.624,1.088 -1.088,0 -1.952,-0.352 -2.624,-1.088 -0.704,-0.736 -1.024,-1.76 -1.024,-3.072 0,-1.28 0.32,-2.272 1.024,-3.008 0.672,-0.704 1.536,-1.088 2.624,-1.088 1.056,0 1.92,0.384 2.624,1.088 0.672,0.736 1.024,1.728 1.024,3.008 0,1.312 -0.352,2.336 -1.024,3.072 z" stroke-width="0" stroke-linejoin="miter" stroke-miterlimit="2" fill="#fc2d49" stroke="#fc2d49" transform="translate(0 417.89864) translate(137.56831999999994 44.41024) scale(1.68) translate(-446.95775 17.632)"></path>
        <path id="path186003" style="font-style:normal;font-weight:800;font-size:32px;line-height:1;font-family:'Montserrat ExtraBold Alt1';font-variant-ligatures:none;text-align:center;text-anchor:middle" d="m 487.79025,-23.744 h -6.08 v 7.904 c -1.152,-1.184 -2.752,-1.792 -4.8,-1.792 -1.6,0 -3.04,0.384 -4.32,1.088 -1.312,0.736 -2.336,1.792 -3.104,3.136 -0.768,1.344 -1.12,2.912 -1.12,4.704 0,1.792 0.352,3.392 1.12,4.736 0.768,1.376 1.792,2.432 3.104,3.168 1.28,0.736 2.72,1.088 4.32,1.088 2.24,0 3.936,-0.672 5.088,-2.016 V 0 h 5.792 z m -7.008,18.112 c -0.704,0.736 -1.568,1.088 -2.592,1.088 -1.088,0 -1.952,-0.352 -2.624,-1.088 -0.704,-0.736 -1.024,-1.76 -1.024,-3.072 0,-1.28 0.32,-2.272 1.024,-3.008 0.672,-0.704 1.536,-1.088 2.624,-1.088 1.056,0 1.92,0.384 2.592,1.088 0.672,0.736 1.024,1.728 1.024,3.008 0,1.312 -0.352,2.336 -1.024,3.072 z" stroke-width="0" stroke-linejoin="miter" stroke-miterlimit="2" fill="#fc2d49" stroke="#fc2d49" transform="translate(0 417.89864) translate(183.61459999999994 34.14208000000001) scale(1.68) translate(-468.36625 23.744)"></path>
        <path id="path186005" style="font-style:normal;font-weight:800;font-size:32px;line-height:1;font-family:'Montserrat ExtraBold Alt1';font-variant-ligatures:none;text-align:center;text-anchor:middle" d="m 507.60725,-16.704 v -0.384 c 0,-0.736 0.16,-1.312 0.512,-1.696 0.352,-0.384 0.864,-0.576 1.504,-0.576 0.608,0 1.216,0.192 1.824,0.512 l 1.504,-4.288 c -0.48,-0.288 -1.088,-0.512 -1.792,-0.672 -0.736,-0.128 -1.472,-0.224 -2.24,-0.224 -2.304,0 -4.064,0.64 -5.344,1.856 -1.28,1.248 -1.888,2.912 -1.888,5.024 v 0.448 h -2.528 v 4.544 h 2.528 V 0 h 6.08 v -12.16 h 3.968 v -4.544 z" stroke-width="0" stroke-linejoin="miter" stroke-miterlimit="2" fill="#fc2d49" stroke="#fc2d49" transform="translate(0 417.89864) translate(245.42683999999997 33.658240000000006) scale(1.68) translate(-499.15925 24.032)"></path>
        <path id="path186007" style="font-style:normal;font-weight:800;font-size:32px;line-height:1;font-family:'Montserrat ExtraBold Alt1';font-variant-ligatures:none;text-align:center;text-anchor:middle" d="m 517.47575,-0.864 c 1.472,0.768 3.168,1.152 5.024,1.152 1.856,0 3.552,-0.384 5.056,-1.152 1.472,-0.768 2.656,-1.824 3.488,-3.2 0.832,-1.344 1.248,-2.912 1.248,-4.64 0,-1.728 -0.416,-3.264 -1.248,-4.608 -0.832,-1.344 -2.016,-2.4 -3.488,-3.168 -1.504,-0.768 -3.2,-1.152 -5.056,-1.152 -1.888,0 -3.584,0.384 -5.056,1.152 -1.472,0.768 -2.656,1.824 -3.488,3.168 -0.832,1.376 -1.248,2.912 -1.248,4.608 0,1.728 0.416,3.296 1.248,4.64 0.832,1.376 2.016,2.432 3.52,3.2 z m 7.648,-4.768 c -0.704,0.736 -1.568,1.088 -2.624,1.088 -1.088,0 -1.952,-0.352 -2.624,-1.088 -0.704,-0.736 -1.024,-1.76 -1.024,-3.072 0,-1.28 0.32,-2.272 1.024,-3.008 0.672,-0.704 1.536,-1.088 2.624,-1.088 1.056,0 1.92,0.384 2.624,1.088 0.672,0.736 1.024,1.728 1.024,3.008 0,1.312 -0.352,2.336 -1.024,3.072 z" stroke-width="0" stroke-linejoin="miter" stroke-miterlimit="2" fill="#fc2d49" stroke="#fc2d49" transform="translate(0 417.89864) translate(278.26832000000013 44.41024) scale(1.68) translate(-512.70775 17.632)"></path>
        <path id="path186009" style="font-style:normal;font-weight:800;font-size:32px;line-height:1;font-family:'Montserrat ExtraBold Alt1';font-variant-ligatures:none;text-align:center;text-anchor:middle" d="m 543.30025,-17.024 c -0.992,0.384 -1.792,0.992 -2.4,1.76 v -2.08 h -5.792 V 0 h 6.08 v -7.968 c 0,-1.44 0.352,-2.528 1.088,-3.232 0.736,-0.704 1.76,-1.056 3.072,-1.056 0.352,0 0.8,0.032 1.376,0.096 v -5.472 c -1.28,0 -2.432,0.224 -3.424,0.608 z" stroke-width="0" stroke-linejoin="miter" stroke-miterlimit="2" fill="#fc2d49" stroke="#fc2d49" transform="translate(0 417.89864) translate(325.98116000000016 44.41024) scale(1.68) translate(-535.10825 17.632)"></path>
        <path id="path186011" style="font-style:normal;font-weight:800;font-size:32px;line-height:1;font-family:'Montserrat ExtraBold Alt1';font-variant-ligatures:none;text-align:center;text-anchor:middle" d="m 576.88025,-17.344 h -5.792 l -4.288,10.592 -4.256,-10.592 h -6.24 l 7.424,17.568 c -0.256,0.512 -0.576,0.896 -0.96,1.12 -0.384,0.256 -0.832,0.352 -1.408,0.352 -0.512,0 -0.992,-0.064 -1.472,-0.256 -0.48,-0.192 -0.896,-0.448 -1.216,-0.768 l -2.112,4.256 c 0.576,0.48 1.312,0.864 2.24,1.152 0.928,0.288 1.856,0.416 2.784,0.416 1.792,0 3.328,-0.416 4.608,-1.28 1.248,-0.864 2.304,-2.368 3.2,-4.512 z" stroke-width="0" stroke-linejoin="miter" stroke-miterlimit="2" fill="#fc2d49" stroke="#fc2d49" transform="translate(0 417.89864) translate(371.6704400000002 44.89408) scale(1.68) translate(-556.30425 17.344)"></path>
        <path id="path186013" style="font-style:normal;font-weight:800;font-size:32px;line-height:1;font-family:'Montserrat ExtraBold Alt1';font-variant-ligatures:none;text-align:center;text-anchor:middle" d="m 581.60075,-0.864 c 1.472,0.768 3.168,1.152 5.024,1.152 1.856,0 3.552,-0.384 5.056,-1.152 1.472,-0.768 2.656,-1.824 3.488,-3.2 0.832,-1.344 1.248,-2.912 1.248,-4.64 0,-1.728 -0.416,-3.264 -1.248,-4.608 -0.832,-1.344 -2.016,-2.4 -3.488,-3.168 -1.504,-0.768 -3.2,-1.152 -5.056,-1.152 -1.888,0 -3.584,0.384 -5.056,1.152 -1.472,0.768 -2.656,1.824 -3.488,3.168 -0.832,1.376 -1.248,2.912 -1.248,4.608 0,1.728 0.416,3.296 1.248,4.64 0.832,1.376 2.016,2.432 3.52,3.2 z m 7.648,-4.768 c -0.704,0.736 -1.568,1.088 -2.624,1.088 -1.088,0 -1.952,-0.352 -2.624,-1.088 -0.704,-0.736 -1.024,-1.76 -1.024,-3.072 0,-1.28 0.32,-2.272 1.024,-3.008 0.672,-0.704 1.536,-1.088 2.624,-1.088 1.056,0 1.92,0.384 2.624,1.088 0.672,0.736 1.024,1.728 1.024,3.008 0,1.312 -0.352,2.336 -1.024,3.072 z" stroke-width="0" stroke-linejoin="miter" stroke-miterlimit="2" fill="#fc2d49" stroke="#fc2d49" transform="translate(0 417.89864) translate(416.23832000000016 44.41024) scale(1.68) translate(-576.83275 17.632)"></path>
        <path id="path186015" style="font-style:normal;font-weight:800;font-size:32px;line-height:1;font-family:'Montserrat ExtraBold Alt1';font-variant-ligatures:none;text-align:center;text-anchor:middle" d="m 617.47325,-17.344 h -6.08 v 8.352 c 0,1.408 -0.32,2.432 -0.928,3.104 -0.608,0.672 -1.376,0.992 -2.336,0.992 -0.96,0 -1.664,-0.288 -2.144,-0.896 -0.512,-0.576 -0.736,-1.536 -0.736,-2.848 v -8.704 h -6.08 v 9.696 c 0,2.656 0.64,4.64 1.984,5.952 1.344,1.344 3.136,1.984 5.376,1.984 0.992,0 1.952,-0.16 2.848,-0.544 0.896,-0.352 1.664,-0.896 2.304,-1.6 V 0 h 5.792 z" stroke-width="0" stroke-linejoin="miter" stroke-miterlimit="2" fill="#fc2d49" stroke="#fc2d49" transform="translate(0 417.89864) translate(463.8436400000002 44.89408) scale(1.68) translate(-599.16925 17.344)"></path>
      </g>
      <g id="title" style="font-style:normal;font-weight:800;font-size:72px;line-height:1;font-family:'Montserrat ExtraBold Alt1';font-variant-ligatures:none;text-align:center;text-anchor:middle" transform="translate(0 0)">
        <path id="path186018" style="font-style:normal;font-weight:800;font-size:72px;line-height:1;font-family:'Montserrat ExtraBold Alt1';font-variant-ligatures:none;text-align:center;text-anchor:middle" d="m 450.54069,-41.616 c -1.872,-2.808 -4.464,-4.968 -7.776,-6.48 -3.384,-1.512 -7.344,-2.304 -11.88,-2.304 h -23.04 v 11.232 h 22.176 c 2.88,0 5.112,0.648 6.624,1.944 1.44,1.296 2.232,3.168 2.232,5.472 0,2.376 -0.792,4.176 -2.232,5.472 -1.512,1.296 -3.744,1.872 -6.624,1.872 h -22.176 V 0 h 14.256 v -13.176 h 8.784 c 4.536,0 8.496,-0.72 11.88,-2.232 3.312,-1.512 5.904,-3.672 7.776,-6.48 1.8,-2.736 2.736,-6.048 2.736,-9.864 0,-3.744 -0.936,-7.056 -2.736,-9.864 z" stroke-width="0" stroke-linejoin="miter" stroke-miterlimit="2" fill="#fc2d49" stroke="#fc2d49" transform="translate(0 319.35447999999997) translate(50 -33.23199999999998) scale(2.8) translate(-407.84469 50.4)"></path>
        <path id="path186020" style="font-style:normal;font-weight:800;font-size:72px;line-height:1;font-family:'Montserrat ExtraBold Alt1';font-variant-ligatures:none;text-align:center;text-anchor:middle" d="M 459.79044,-39.024 V 0 h 13.68 v -39.024 z m 0.792,-6.408 c 1.512,1.44 3.528,2.088 6.048,2.088 2.448,0 4.464,-0.648 6.048,-2.088 1.512,-1.44 2.304,-3.24 2.304,-5.4 0,-2.016 -0.792,-3.744 -2.304,-5.04 -1.584,-1.296 -3.6,-2.016 -6.048,-2.016 -2.52,0 -4.536,0.72 -6.048,2.088 -1.584,1.44 -2.304,3.168 -2.304,5.184 0,2.088 0.72,3.816 2.304,5.184 z" stroke-width="0" stroke-linejoin="miter" stroke-miterlimit="2" fill="#ee4e6c" stroke="#ee4e6c" transform="translate(0 319.35447999999997) translate(247.21449999999987 -54.1984) scale(2.8) translate(-458.27844 57.888)"></path>
        <path id="path186022" style="font-style:normal;font-weight:800;font-size:72px;line-height:1;font-family:'Montserrat ExtraBold Alt1';font-variant-ligatures:none;text-align:center;text-anchor:middle" d="M 500.00244,-13.68 510.94644,0 h 16.56 l -17.568,-22.32 16.2,-16.704 h -16.2 l -13.968,13.608 v -28.008 h -13.68 V 0 h 13.68 v -9.576 z" stroke-width="0" stroke-linejoin="miter" stroke-miterlimit="2" fill="#df6f8f" stroke="#df6f8f" transform="translate(0 319.35447999999997) translate(370.44809999999984 -41.6992) scale(2.8) translate(-482.29044 53.424)"></path>
        <path id="path186024" style="font-style:normal;font-weight:800;font-size:72px;line-height:1;font-family:'Montserrat ExtraBold Alt1';font-variant-ligatures:none;text-align:center;text-anchor:middle" d="M 549.36181,-13.68 560.30581,0 h 16.56 l -17.568,-22.32 16.2,-16.704 h -16.2 l -13.968,13.608 v -28.008 h -13.68 V 0 h 13.68 v -9.576 z" stroke-width="0" stroke-linejoin="miter" stroke-miterlimit="2" fill="#d18fb2" stroke="#d18fb2" transform="translate(0 319.35447999999997) translate(564.6543359999998 -41.6992) scale(2.8) translate(-531.64981 53.424)"></path>
        <path id="path186026" style="font-style:normal;font-weight:800;font-size:72px;line-height:1;font-family:'Montserrat ExtraBold Alt1';font-variant-ligatures:none;text-align:center;text-anchor:middle" d="m 611.77006,-35.208 c -3.456,-2.952 -8.352,-4.464 -14.832,-4.464 -3.168,0 -6.264,0.432 -9.36,1.224 -3.096,0.792 -5.688,1.872 -7.848,3.312 l 4.608,9.288 c 1.296,-1.008 2.952,-1.872 4.896,-2.448 1.872,-0.576 3.816,-0.936 5.688,-0.936 5.256,0 7.992,2.088 8.28,6.192 h -7.776 c -5.904,0 -10.296,1.08 -13.104,3.096 -2.88,2.016 -4.248,4.896 -4.248,8.568 0,2.304 0.504,4.392 1.656,6.192 1.152,1.8 2.808,3.24 5.04,4.248 2.16,1.08 4.824,1.584 7.848,1.584 5.688,0 9.504,-1.872 11.52,-5.688 V 0 h 12.744 v -21.672 c 0,-6.048 -1.728,-10.584 -5.112,-13.536 z m -11.16,26.064 c -1.224,0.792 -2.592,1.152 -4.176,1.152 -1.584,0 -2.88,-0.36 -3.744,-1.08 -0.936,-0.72 -1.368,-1.656 -1.368,-2.88 0,-2.592 1.944,-3.96 5.976,-3.96 h 5.904 v 3.384 c -0.576,1.512 -1.44,2.664 -2.592,3.384 z" stroke-width="0" stroke-linejoin="miter" stroke-miterlimit="2" fill="#c2b0d5" stroke="#c2b0d5" transform="translate(0 319.35447999999997) translate(750.6422359999998 -3.1935999999999822) scale(2.8) translate(-578.07406 39.672)"></path>
      </g>
      <image xlink:href="" id="icon" style="display: none;" x="0" y="0"></image>
    </g>
  </g>
</svg>