<?xml version="1.0" encoding="utf-8"?>
<!-- Generator: Adobe Illustrator 28.2.0, SVG Export Plug-In . SVG Version: 6.00 Build 0)  -->
<svg version="1.1"
	 id="svg400001" xmlns:rdf="http://www.w3.org/1999/02/22-rdf-syntax-ns#" xmlns:cc="http://creativecommons.org/ns#" xmlns:svg="http://www.w3.org/2000/svg" xmlns:dc="http://purl.org/dc/elements/1.1/"
	 xmlns="http://www.w3.org/2000/svg" xmlns:xlink="http://www.w3.org/1999/xlink" x="0px" y="0px" viewBox="0 0 156.8 156.8"
	 style="enable-background:new 0 0 156.8 156.8;" xml:space="preserve">
<style type="text/css">
	.st0{fill:#E63C6D;}
	.st1{fill:#3D273C;}
</style>
<circle class="st0" cx="78.4" cy="78.4" r="78.4"/>
<g id="monogram">
	<path id="path400009" class="st1" d="M117.3,51c-3.1-4.7-7.4-8.3-13-10.8s-12.2-3.8-19.8-3.8H46.1v18.7h37c4.8,0,8.5,1.1,11,3.2
		c2.4,2.2,3.7,5.3,3.7,9.1c0,4-1.3,7-3.7,9.1c-2.5,2.2-6.2,3.1-11,3.1h-37v40.7h23.8v-22h14.6c7.6,0,14.2-1.2,19.8-3.7
		c5.5-2.5,9.8-6.1,13-10.8c3-4.6,4.6-10.1,4.6-16.4C121.9,61.2,120.3,55.7,117.3,51L117.3,51z"/>
</g>
</svg>
